<svg width="365" height="280" viewBox="0 0 365 280" fill="none" xmlns="http://www.w3.org/2000/svg">
<g clip-path="url(#clip0_1_699)">
<g opacity="0.2">
<path d="M81.7143 56.1159C77.1299 53.9633 69.5446 57.4654 67.1322 62.5901C62.5147 72.3678 77.445 86.5334 82.8749 85.01C88.9349 83.3128 90.1287 60.0733 81.7143 56.1159Z" stroke="#754FC7" stroke-width="1.5" stroke-miterlimit="10" stroke-linecap="round" stroke-dasharray="8 8"/>
<path d="M53.1189 94.1044C51.1195 92.9676 29.8972 80.9009 17.8905 90.4545C9.45638 97.156 9.37519 111.486 15.7185 119.534C28.2631 135.48 67.1859 128.33 71.2253 116.921C73.9352 109.233 61.1673 98.6818 53.1189 94.1044Z" stroke="#754FC7" stroke-width="1.5" stroke-miterlimit="10" stroke-linecap="round" stroke-dasharray="8 8"/>
<path d="M81.0844 255.742C123.272 245.286 171.205 234.639 245.641 236.452C287.273 237.462 296.699 224.563 328.25 208.526C356.37 194.228 370.181 165.798 361.701 149.687C353.137 133.418 327.057 139.901 305.693 115.684C295.961 104.656 297.677 96.9237 292.056 84.6955C274.274 45.974 207.606 15.7055 174.736 31.7256C131.305 52.8871 168.436 144.322 119.89 169.292C89.1837 185.088 65.9718 154.762 35.6553 177.918C20.6338 189.393 2.2549 205.48 0.837307 222.957C0.837307 222.957 -1.15229 265.677 81.0844 255.742Z" stroke="#754FC7" stroke-width="2" stroke-miterlimit="10" stroke-linecap="round" stroke-dasharray="8 8"/>
<path d="M314.158 208.162C314.158 208.162 306.514 218.279 298.871 232.163C291.982 244.681 286.743 261.554 285.582 275.637C282.341 275.48 278.776 275.339 274.921 275.207C252.099 274.395 219.146 273.89 182.504 273.89C140.847 273.89 103.957 274.544 81.3 275.554C80.5207 275.587 79.758 275.62 79.0119 275.662C50.7182 240.641 -6.25063 179.624 46.1753 154.53C46.1753 154.53 50.0135 153.363 55.7751 150.854C73.9965 142.914 111.451 121.538 107.281 81.2349C107.281 81.2349 105.863 73.7174 105.863 63.2526C105.863 38.7795 113.623 -1.7799 165.402 0.0746251C196.763 1.20059 225.645 17.1379 243.104 42.6459C260.231 67.6654 287.613 98.4472 309.921 80.8789C315.069 76.8221 321.876 75.3153 328.234 77.1036C344.283 81.5826 362.521 104.897 314.158 208.162Z" fill="#CCBDEE"/>
</g>
<path opacity="0.15" d="M355.798 277.003C355.798 278.659 278.212 280 182.496 280C128.495 280 80.2554 279.569 48.4715 278.899C41.1515 278.742 34.7018 278.576 29.2636 278.402C25.674 278.286 22.5238 278.162 19.8462 278.038C12.9572 277.715 9.19354 277.367 9.19354 277.003C9.19354 276.539 15.3033 276.1 26.2046 275.703C30.6729 275.546 35.9371 275.388 41.9224 275.248C73.3995 274.494 124.64 274.006 182.496 274.006C233.388 274.006 279.165 274.387 310.866 274.991C338.787 275.521 355.798 276.225 355.798 277.003Z" fill="#2B3674"/>
<path d="M149.692 103.622L165.75 130.355C166.355 131.365 166.032 132.681 165.012 133.286L141.336 147.468C140.325 148.072 139.007 147.749 138.401 146.731L119.392 115.08C118.787 114.07 119.111 112.753 120.13 112.149L138.75 100.997L138.949 101.047L149.692 103.622Z" fill="white"/>
<path d="M149.692 103.622L144.42 106.776C143.591 107.273 142.521 107 142.032 106.18L138.948 101.039L149.692 103.622Z" fill="#CCBDEE"/>
<path d="M142.057 126.77L141.552 125.934C141.112 125.205 140.888 124.485 140.88 123.756C140.872 123.036 141.096 122.125 141.552 121.024C142.007 119.981 142.256 119.203 142.298 118.698C142.339 118.193 142.223 117.721 141.966 117.282C141.668 116.794 141.261 116.529 140.747 116.487C140.233 116.446 139.645 116.62 138.99 117.017C137.854 117.696 136.785 118.847 135.773 120.453L133.046 118.706C134.165 116.752 135.674 115.204 137.564 114.07C139.123 113.134 140.59 112.77 141.958 112.96C143.326 113.159 144.387 113.879 145.133 115.129C145.63 115.966 145.871 116.794 145.862 117.621C145.846 118.458 145.539 119.567 144.934 120.958C144.528 121.927 144.312 122.614 144.287 123.011C144.262 123.409 144.387 123.831 144.66 124.286L145.067 124.965L142.057 126.77ZM144.022 130.868C143.641 130.231 143.525 129.651 143.665 129.121C143.815 128.591 144.213 128.136 144.859 127.739C145.489 127.366 146.078 127.234 146.617 127.366C147.164 127.49 147.62 127.863 147.993 128.484C148.349 129.08 148.457 129.659 148.316 130.206C148.175 130.76 147.794 131.224 147.172 131.597C146.534 131.977 145.945 132.102 145.39 131.977C144.851 131.853 144.387 131.481 144.022 130.868Z" fill="#DBCEF6"/>
<path d="M314.92 102.835L324.52 133.128C324.885 134.279 324.246 135.504 323.094 135.86L296.268 144.338C295.115 144.703 293.888 144.065 293.532 142.914L282.166 107.041C281.802 105.89 282.44 104.665 283.592 104.309L304.699 97.6357L304.881 97.7268L314.92 102.835Z" fill="white"/>
<path d="M314.92 102.835L308.951 104.723C308.015 105.021 307.02 104.499 306.721 103.564L304.873 97.7351L314.92 102.835Z" fill="#CCBDEE"/>
<path d="M312.582 125.288L309.009 126.422L303.803 121.927L302.137 128.591L298.779 129.651L301.266 120.495L294.419 114.798L297.876 113.706L302.742 118.011L304.185 111.719L307.559 110.651L305.237 119.435L312.582 125.288Z" fill="#DBCEF6"/>
<path d="M220.878 52.2743L211.088 82.5097C210.715 83.6522 209.488 84.2814 208.344 83.9171L181.567 75.2737C180.423 74.9012 179.793 73.6759 180.158 72.5334L191.747 36.7261C192.121 35.5836 193.347 34.9544 194.491 35.3187L215.556 42.1158L215.648 42.298L220.878 52.2743Z" fill="white"/>
<path d="M220.878 52.2742L214.918 50.3535C213.981 50.0554 213.476 49.0536 213.774 48.1181L215.656 42.3062L220.878 52.2742Z" fill="#CCBDEE"/>
<path d="M202.723 70.4969L200.46 69.7683L199.117 66.4815L196.108 68.3609L193.986 67.6737L198.23 65.1569L196.39 60.9097L198.578 61.6134L199.797 64.7181L202.574 62.9049L204.713 63.5921L200.676 66.0262L202.723 70.4969Z" fill="#DBCEF6"/>
<path d="M214.52 54.3773L193.82 47.6961C193.571 47.6133 193.439 47.3484 193.513 47.1083C193.596 46.8599 193.861 46.7274 194.102 46.8019L214.794 53.4832C215.042 53.566 215.175 53.8309 215.1 54.071C215.034 54.3277 214.769 54.4601 214.52 54.3773Z" fill="#DBCEF6"/>
<path d="M213.824 56.6376L193.132 49.9563C192.883 49.8735 192.751 49.6086 192.825 49.3685C192.908 49.1201 193.173 48.9877 193.414 49.0622L214.106 55.7434C214.354 55.8262 214.487 56.0912 214.412 56.3313C214.338 56.5796 214.072 56.7121 213.824 56.6376Z" fill="#DBCEF6"/>
<path d="M213.127 58.8895L192.435 52.2083C192.187 52.1255 192.054 51.8606 192.129 51.6205C192.212 51.3721 192.477 51.2396 192.717 51.3141L213.409 57.9954C213.658 58.0782 213.79 58.3431 213.716 58.5832C213.641 58.8399 213.376 58.9723 213.127 58.8895Z" fill="#DBCEF6"/>
<path d="M212.431 61.1495L191.739 54.4683C191.49 54.3855 191.358 54.1206 191.432 53.8805C191.515 53.6321 191.781 53.4996 192.021 53.5742L212.713 60.2554C212.962 60.3382 213.094 60.6031 213.02 60.8432C212.945 61.0916 212.68 61.2241 212.431 61.1495Z" fill="#DBCEF6"/>
<path d="M211.561 63.3602L190.869 56.679C190.62 56.5962 190.487 56.3313 190.562 56.0912C190.645 55.8428 190.91 55.7103 191.151 55.7848L211.842 62.4661C212.091 62.5489 212.224 62.8138 212.149 63.0539C212.075 63.3023 211.809 63.4348 211.561 63.3602Z" fill="#DBCEF6"/>
<path d="M79.1363 178.763L66.9914 208.137C66.5272 209.246 65.2588 209.776 64.1397 209.321L38.134 198.591C37.0231 198.128 36.4925 196.861 36.9485 195.743L51.3316 160.963C51.7959 159.853 53.0642 159.323 54.1834 159.779L74.6431 168.215L74.726 168.406L79.1363 178.763Z" fill="white"/>
<path d="M79.1362 178.763L73.3498 176.378C72.4462 176.006 72.0151 174.963 72.3882 174.06L74.726 168.414L79.1362 178.763Z" fill="#CCBDEE"/>
<path d="M59.605 195.495L57.3999 194.584L56.3222 191.206L53.172 192.846L51.1078 191.993L55.5346 189.815L54.0424 185.444L56.173 186.322L57.1429 189.517L60.0527 187.928L62.1335 188.789L57.9222 190.9L59.605 195.495Z" fill="#DBCEF6"/>
<path d="M72.6369 180.361L52.5337 172.065C52.2933 171.966 52.1772 171.692 52.2767 171.452C52.3762 171.212 52.6497 171.096 52.8901 171.196L72.9934 179.491C73.2338 179.591 73.3498 179.864 73.2504 180.104C73.1509 180.344 72.8773 180.46 72.6369 180.361Z" fill="#DBCEF6"/>
<path d="M71.7664 182.555L51.6632 174.259C51.4228 174.16 51.3067 173.886 51.4062 173.646C51.5057 173.406 51.7792 173.29 52.0197 173.39L72.1229 181.685C72.3633 181.785 72.4793 182.058 72.3799 182.298C72.2804 182.538 72.0068 182.654 71.7664 182.555Z" fill="#DBCEF6"/>
<path d="M70.8877 184.749L50.7845 176.453C50.544 176.354 50.428 176.08 50.5275 175.84C50.6269 175.6 50.9005 175.484 51.1409 175.584L71.2524 183.879C71.4929 183.979 71.6089 184.252 71.5094 184.492C71.4017 184.732 71.1281 184.848 70.8877 184.749Z" fill="#DBCEF6"/>
<path d="M70.0173 186.943L49.914 178.647C49.6736 178.548 49.5576 178.274 49.657 178.034C49.7565 177.794 50.0301 177.678 50.2705 177.778L70.3737 186.073C70.6141 186.173 70.7302 186.446 70.6307 186.686C70.5312 186.926 70.2577 187.042 70.0173 186.943Z" fill="#DBCEF6"/>
<path d="M68.9727 189.079L48.8695 180.783C48.6291 180.684 48.513 180.411 48.6125 180.17C48.712 179.93 48.9855 179.814 49.2259 179.914L69.3292 188.209C69.5696 188.309 69.6856 188.582 69.5862 188.822C69.4867 189.062 69.2131 189.178 68.9727 189.079Z" fill="#DBCEF6"/>
<path d="M196.241 163.231V150.804C196.241 148.122 198.114 145.944 200.419 145.944H244.099C246.412 145.944 248.277 148.122 248.277 150.804V168.306V186.404V275.629H110.671V177.231C110.671 172.305 114.112 168.306 118.348 168.306H191.872C194.284 168.306 196.241 166.038 196.241 163.231Z" fill="#754FC7"/>
<path d="M230.246 219.513C230.246 220.506 231.117 221.301 232.178 221.301C232.219 221.301 232.261 221.301 232.302 221.301L236.804 221.028L237.608 218.055C235.552 218.097 233.023 218.453 230.246 219.513Z" fill="#DE995F"/>
<path d="M248.327 275.629H110.721L91.3972 190.254C90.419 185.941 93.221 181.727 97.0593 181.727H222.561C225.223 181.727 227.544 183.813 228.223 186.802L248.327 275.629Z" fill="#BBA4EE"/>
<path d="M153.812 243.29H160.9L165.518 232.229L174.513 243.29H181.161L168.461 228.214L174.745 214.057H167.897L163.678 224.571L155.404 214.057H148.722L160.784 228.553L153.812 243.29Z" fill="white"/>
<path d="M240.211 130.818H253.773C258.979 130.818 263.199 126.604 263.199 121.405V116.554C263.199 111.354 258.979 107.14 253.773 107.14H240.211C235.005 107.14 230.785 111.354 230.785 116.554V121.405C230.785 126.604 235.005 130.818 240.211 130.818Z" fill="white"/>
<path d="M243.228 128.906H250.747C250.747 128.906 250.076 134.958 243.228 137.955C243.228 137.955 246.834 132.665 243.228 128.906Z" fill="white"/>
<path d="M245.135 121.331V120.61C245.135 119.989 245.268 119.451 245.533 118.996C245.798 118.541 246.287 118.052 246.992 117.531C247.672 117.042 248.119 116.653 248.335 116.347C248.551 116.04 248.658 115.701 248.658 115.328C248.658 114.906 248.501 114.591 248.194 114.368C247.887 114.144 247.448 114.037 246.893 114.037C245.923 114.037 244.82 114.351 243.577 114.989L242.515 112.869C243.958 112.058 245.491 111.661 247.108 111.661C248.443 111.661 249.504 111.984 250.283 112.621C251.062 113.259 251.46 114.111 251.46 115.179C251.46 115.891 251.294 116.504 250.971 117.017C250.648 117.531 250.034 118.118 249.131 118.764C248.509 119.219 248.119 119.575 247.954 119.807C247.788 120.047 247.705 120.362 247.705 120.751V121.331H245.135ZM244.828 124.642C244.828 124.096 244.978 123.69 245.268 123.409C245.558 123.127 245.981 122.995 246.536 122.995C247.075 122.995 247.489 123.136 247.78 123.425C248.078 123.707 248.219 124.121 248.219 124.642C248.219 125.156 248.07 125.553 247.771 125.851C247.473 126.141 247.058 126.29 246.528 126.29C245.981 126.29 245.566 126.149 245.268 125.859C244.978 125.57 244.828 125.164 244.828 124.642Z" fill="#CCBDEE"/>
</g>
<defs>
<clipPath id="clip0_1_699">
<rect width="365" height="280" fill="white"/>
</clipPath>
</defs>
</svg>
