<svg width="266" height="219" viewBox="0 0 266 219" fill="none" xmlns="http://www.w3.org/2000/svg">
<path d="M215.311 61.1436C214.845 60.9512 214.543 60.5025 214.543 59.9987C214.543 26.8625 187.747 0 154.692 0C131.522 0 111.422 13.1977 101.473 32.5134C100.431 34.5375 98.2751 35.7465 96.0002 35.5724C93.7618 35.4076 91.5051 35.316 89.2302 35.316C39.803 35.316 -0.232178 75.6418 0.0784557 125.273C0.398225 174.62 40.3237 214.231 89.5591 214.048C96.9047 214.021 104.04 213.105 110.865 211.401C125.702 207.692 141.325 208.407 155.651 213.764C164.44 217.052 173.942 218.875 183.873 218.921C228.896 219.122 265.743 182.579 265.999 137.445C266.191 102.999 245.195 73.4529 215.311 61.1436Z" fill="#F5F2FC"/>
<path d="M159.238 133.356L101.396 111.274L131.577 31.7002L189.418 53.7909L159.238 133.356Z" fill="url(#paint0_linear_154_8085)"/>
<path d="M173.659 76.3929L127.701 58.8398L127.132 60.3293L173.098 77.8824L173.659 76.3929Z" fill="url(#paint1_linear_154_8085)"/>
<path d="M172.175 80.3246L126.209 62.7715L125.648 64.2609L171.605 81.8054L172.175 80.3246Z" fill="url(#paint2_linear_154_8085)"/>
<path d="M170.682 84.2474L124.716 66.6943L124.155 68.1838L170.121 85.7369L170.682 84.2474Z" fill="url(#paint3_linear_154_8085)"/>
<path d="M169.196 88.1693L123.23 70.6162L122.669 72.1057L168.635 89.6501L169.196 88.1693Z" fill="url(#paint4_linear_154_8085)"/>
<path d="M167.704 92.0921L121.746 74.5391L121.177 76.0285L167.143 93.5816L167.704 92.0921Z" fill="url(#paint5_linear_154_8085)"/>
<path d="M163.319 94.9152L123.144 79.5703L122.583 81.0598L162.758 96.4047L163.319 94.9152Z" fill="url(#paint6_linear_154_8085)"/>
<path d="M175.825 56.4925L139.267 42.5332L137.86 46.2482L174.419 60.2075L175.825 56.4925Z" fill="url(#paint7_linear_154_8085)"/>
<path d="M169.153 60.4931L141.596 49.9717L140.983 51.591L168.541 62.1125L169.153 60.4931Z" fill="url(#paint8_linear_154_8085)"/>
<path d="M125.846 104.84L115.921 101.047L115.42 102.354L125.354 106.147L125.846 104.84Z" fill="url(#paint9_linear_154_8085)"/>
<path d="M132.008 110.538L114.807 103.965L114.315 105.272L131.516 111.836L132.008 110.538Z" fill="url(#paint10_linear_154_8085)"/>
<path d="M153.43 119.509C152.739 119.007 151.876 118.938 151.048 119.085C151.091 118.946 151.134 118.799 151.177 118.661C151.764 116.782 152.342 114.911 152.929 113.032C153.085 112.547 152.42 112.305 152.204 112.755C151.643 113.907 150.979 114.998 150.211 116.019C149.9 116.435 149.572 116.937 149.14 117.241C148.882 117.414 148.122 117.552 148.191 117.007C148.217 116.782 148.044 116.626 147.837 116.582C147.483 116.504 147.13 116.426 146.776 116.349C146.577 116.305 146.068 116.271 145.921 116.071C145.792 115.89 145.964 115.63 145.973 115.422C145.982 115.197 145.904 114.972 145.74 114.824C145.403 114.504 144.851 114.599 144.514 114.868C144.325 115.015 144.161 115.327 143.928 115.396C143.764 115.448 143.617 115.37 143.548 115.249C143.66 115.058 143.729 114.842 143.746 114.608C143.764 114.305 143.367 114.01 143.116 114.27C142.909 114.478 142.78 114.755 142.745 115.024C142.642 115.119 142.521 115.188 142.383 115.24C142.331 114.686 142.167 114.149 141.822 113.707C141.174 112.859 140.096 112.66 139.12 112.4C138.05 112.123 137.118 111.646 136.816 110.495C136.549 109.447 137.006 108.39 137.886 107.784C138.948 107.048 140.355 107.204 141.347 107.975C141.77 108.304 142.374 108.945 142.167 109.542C141.917 110.261 140.898 110.192 140.303 110.166C139.802 110.14 139.725 110.919 140.225 110.945C141.244 110.997 142.607 110.902 142.926 109.698C143.211 108.633 142.288 107.611 141.459 107.1C139.561 105.948 136.859 106.624 136.126 108.858C135.815 109.802 135.97 110.858 136.514 111.69C137.118 112.608 138.102 112.945 139.12 113.205C140.26 113.491 141.39 113.829 141.589 115.162C141.597 115.231 141.606 115.318 141.615 115.396C141.105 115.439 140.596 115.431 140.104 115.604C139.198 115.924 138.482 116.782 138.663 117.786C138.836 118.721 139.742 119.198 140.622 118.938C141.701 118.626 142.15 117.535 142.314 116.522C142.34 116.375 142.357 116.219 142.374 116.063C142.521 116.028 142.668 115.976 142.806 115.907C142.866 115.881 142.918 115.846 142.978 115.812C142.996 115.838 143.021 115.864 143.047 115.881C143.6 116.409 144.299 116.184 144.773 115.699C144.842 115.63 145.058 115.361 145.162 115.439C145.222 115.483 145.093 115.82 145.093 115.898C145.067 116.201 145.196 116.478 145.429 116.678C145.68 116.885 145.99 116.972 146.301 117.05C146.681 117.137 147.06 117.223 147.44 117.301C147.535 117.717 147.88 118.037 148.295 118.158C148.959 118.358 149.572 117.977 150.021 117.509C150.435 117.076 150.815 116.6 151.169 116.106C151.013 116.591 150.867 117.085 150.711 117.57C150.53 118.158 150.34 118.747 150.159 119.336C149.96 119.405 149.77 119.483 149.589 119.561C148.528 120.046 146.991 121.077 146.974 122.393C146.957 123.813 148.631 124.082 149.477 123.19C150.003 122.644 150.185 121.865 150.4 121.163C150.53 120.756 150.651 120.349 150.78 119.942C151.548 119.726 152.36 119.717 152.964 120.159C153.378 120.436 153.844 119.804 153.43 119.509ZM140.38 118.184C139.716 118.358 139.259 117.769 139.457 117.137C139.664 116.504 140.372 116.253 140.967 116.193C141.174 116.167 141.39 116.158 141.606 116.149C141.528 117.033 141.192 117.985 140.38 118.184ZM149.209 122.22C149.045 122.54 148.804 122.835 148.433 122.913C148.087 122.982 147.811 122.826 147.768 122.471C147.673 121.761 148.579 121.094 149.08 120.739C149.304 120.583 149.581 120.419 149.874 120.28C149.676 120.93 149.512 121.622 149.209 122.22Z" fill="url(#paint11_linear_154_8085)"/>
<path d="M171.63 86.1174L123.826 72.9981L131.887 43.3994L179.7 56.5188L171.63 86.1174Z" fill="url(#paint12_linear_154_8085)"/>
<path d="M171.63 86.1174L123.826 72.9981L131.887 43.3994L171.63 86.1174Z" fill="url(#paint13_linear_154_8085)"/>
<path d="M123.826 72.9978L171.63 86.1172L179.7 56.5186L123.826 72.9978Z" fill="url(#paint14_linear_154_8085)"/>
<path d="M153.411 63.9316C152.773 63.1523 151.703 62.8578 150.762 63.2042L123.826 72.9983L171.639 86.109L153.411 63.9316Z" fill="url(#paint15_linear_154_8085)"/>
<path d="M153.308 68.0449C151.686 68.755 149.795 68.2354 148.76 66.7979L131.887 43.4082L179.7 56.5189L153.308 68.0449Z" fill="url(#paint16_linear_154_8085)"/>
<path d="M153.273 95.7989L97.3306 122.341L61.0566 45.3825L116.999 18.832L153.273 95.7989Z" fill="url(#paint17_linear_154_8085)"/>
<path d="M122.333 45.8936L77.8774 66.9884L78.5506 68.4259L123.015 47.3311L122.333 45.8936Z" fill="url(#paint18_linear_154_8085)"/>
<path d="M124.119 49.5566L79.6631 70.6602L80.3449 72.0977L124.801 51.0028L124.119 49.5566Z" fill="url(#paint19_linear_154_8085)"/>
<path d="M125.914 53.3584L81.4585 74.4533L82.1317 75.8908L126.587 54.7959L125.914 53.3584Z" fill="url(#paint20_linear_154_8085)"/>
<path d="M127.702 57.1514L83.2461 78.2463L83.9193 79.6838L128.375 58.5889L127.702 57.1514Z" fill="url(#paint21_linear_154_8085)"/>
<path d="M129.488 61.082L85.0322 82.1769L85.714 83.6144L130.17 62.5195L129.488 61.082Z" fill="url(#paint22_linear_154_8085)"/>
<path d="M128.478 66.209L89.6235 84.6454L90.2967 86.0829L129.16 67.6465L128.478 66.209Z" fill="url(#paint23_linear_154_8085)"/>
<path d="M109.526 30.54L74.1665 47.3138L75.8667 50.9162L111.226 34.1338L109.526 30.54Z" fill="url(#paint24_linear_154_8085)"/>
<path d="M107.79 38.1348L81.1309 50.7865L81.8645 52.3539L108.524 39.7022L107.79 38.1348Z" fill="url(#paint25_linear_154_8085)"/>
<path d="M109.646 100.198L100.041 104.753L100.636 106.018L110.242 101.463L109.646 100.198Z" fill="url(#paint26_linear_154_8085)"/>
<path d="M118.009 99.6875L101.378 107.576L101.974 108.841L118.605 100.943L118.009 99.6875Z" fill="url(#paint27_linear_154_8085)"/>
<path d="M139.301 90.3951C138.464 90.5509 137.817 91.1225 137.342 91.8239C137.273 91.694 137.204 91.5641 137.126 91.4342C136.186 89.711 135.245 87.9877 134.296 86.2644C134.054 85.8141 133.415 86.1259 133.588 86.6021C134.028 87.8058 134.347 89.0442 134.554 90.2998C134.641 90.8107 134.77 91.3996 134.684 91.9192C134.632 92.2309 134.201 92.8717 133.864 92.4474C133.717 92.2655 133.484 92.2915 133.312 92.4041C133.01 92.6033 132.708 92.8111 132.405 93.0103C132.233 93.1228 131.862 93.4692 131.62 93.4346C131.396 93.4086 131.327 93.0969 131.189 92.9497C131.033 92.7851 130.826 92.6899 130.602 92.6985C130.136 92.7245 129.825 93.1835 129.782 93.6164C129.756 93.8589 129.868 94.188 129.747 94.4045C129.67 94.5603 129.506 94.6123 129.376 94.5777C129.316 94.3612 129.212 94.162 129.057 93.9888C128.85 93.7637 128.366 93.8503 128.375 94.214C128.384 94.5084 128.487 94.7942 128.66 95.002C128.66 95.1405 128.625 95.2791 128.565 95.4177C128.133 95.0713 127.633 94.8201 127.072 94.7595C126.01 94.6383 125.121 95.2791 124.258 95.816C123.318 96.3962 122.325 96.7426 121.298 96.1624C120.357 95.6255 119.917 94.569 120.09 93.5125C120.297 92.2396 121.376 91.3216 122.627 91.1398C123.154 91.0619 124.034 91.0705 124.327 91.6334C124.673 92.3175 123.922 93.0016 123.482 93.4086C123.119 93.755 123.62 94.3439 123.991 94.0061C124.733 93.3047 125.605 92.2482 124.966 91.1918C124.405 90.2478 123.024 90.2046 122.083 90.4557C119.943 91.0272 118.562 93.4519 119.65 95.5302C120.107 96.4135 120.979 97.0283 121.954 97.2102C123.033 97.4094 123.965 96.9331 124.845 96.3702C125.838 95.7381 126.865 95.1579 127.961 95.9372C128.021 95.9805 128.082 96.0325 128.151 96.0758C127.823 96.4741 127.469 96.8378 127.253 97.3141C126.856 98.1887 126.977 99.3058 127.823 99.8687C128.608 100.388 129.583 100.059 130.015 99.2539C130.541 98.2667 130.067 97.1756 129.454 96.3529C129.359 96.2317 129.264 96.1104 129.16 95.9892C129.238 95.8593 129.298 95.7207 129.35 95.5649C129.368 95.5043 129.385 95.435 129.402 95.3744C129.437 95.3744 129.471 95.3744 129.497 95.3744C130.256 95.3484 130.576 94.6816 130.567 94.0061C130.567 93.9109 130.524 93.5645 130.645 93.5472C130.714 93.5385 130.869 93.8589 130.921 93.9195C131.12 94.1447 131.413 94.2486 131.706 94.214C132.026 94.1793 132.311 94.0148 132.569 93.8416C132.897 93.6251 133.217 93.4086 133.545 93.1921C133.907 93.4086 134.373 93.3826 134.753 93.1661C135.357 92.8284 135.504 92.1097 135.478 91.4689C135.452 90.8713 135.374 90.2652 135.262 89.659C135.504 90.1093 135.754 90.5509 135.996 91.0012C136.289 91.5381 136.591 92.0837 136.885 92.6206C136.798 92.8111 136.721 93.0016 136.66 93.1921C136.272 94.3006 135.953 96.1191 136.885 97.0457C137.894 98.0415 139.241 97.0197 139.189 95.7814C139.154 95.0193 138.723 94.3525 138.369 93.703C138.162 93.3307 137.963 92.9583 137.756 92.586C138.136 91.8845 138.688 91.2957 139.422 91.1571C139.931 91.0792 139.802 90.3085 139.301 90.3951ZM129.316 98.9248C128.979 99.5223 128.246 99.4531 127.926 98.8642C127.616 98.284 127.926 97.5912 128.289 97.1149C128.418 96.9504 128.556 96.7859 128.694 96.6213C129.273 97.2968 129.721 98.2061 129.316 98.9248ZM138.326 95.3397C138.438 95.6774 138.49 96.0671 138.291 96.3789C138.102 96.6733 137.8 96.7686 137.506 96.5521C136.936 96.1277 137.075 95.0106 137.169 94.4045C137.213 94.1274 137.282 93.8243 137.385 93.5125C137.722 94.1014 138.11 94.6989 138.326 95.3397Z" fill="url(#paint28_linear_154_8085)"/>
<path d="M121.393 74.4175L84.618 74.3742C83.496 74.3742 82.5898 73.4649 82.5898 72.3392L82.6157 51.1317C82.6157 50.0059 83.5219 49.0967 84.6439 49.0967L121.418 49.14C122.54 49.14 123.447 50.0492 123.447 51.175L123.421 72.3825C123.421 73.5082 122.514 74.4175 121.393 74.4175Z" fill="url(#paint29_linear_154_8085)"/>
<path d="M100.756 44.9142L100.16 43.5374C99.8323 42.7666 99.0728 42.2731 98.2356 42.2644L84.7116 42.2471C83.5552 42.2471 82.6144 43.1823 82.6144 44.3514V47.3476H82.6231L82.5972 69.3344C82.5972 70.4948 83.5293 71.4387 84.6944 71.4387L121.331 71.482C122.487 71.482 123.428 70.5468 123.428 69.3777L123.454 48.3088C123.454 47.1484 122.522 46.2045 121.357 46.2045L102.672 46.1785C101.843 46.1785 101.084 45.6763 100.756 44.9142Z" fill="url(#paint30_linear_154_8085)"/>
<path d="M119.226 71.7853L86.7924 71.7507C85.8085 71.7507 85.0059 70.9453 85.0059 69.9581L85.0317 49.2529L121.038 49.2962L121.012 70.0014C121.012 70.98 120.21 71.7853 119.226 71.7853Z" fill="white"/>
<path d="M121.393 74.4173L84.618 74.374C83.496 74.374 82.5898 73.4647 82.5898 72.339L82.6157 52.4824L123.447 52.5344L123.421 72.3909C123.421 73.508 122.514 74.4173 121.393 74.4173Z" fill="#9E7DE4"/>
<path d="M132.362 87.269L95.5872 87.2257C94.4653 87.2257 93.5591 86.3165 93.5591 85.1907L93.585 63.9833C93.585 62.8575 94.4912 61.9482 95.6131 61.9482L132.388 61.9915C133.51 61.9915 134.416 62.9008 134.416 64.0266L134.39 85.234C134.39 86.3598 133.484 87.269 132.362 87.269Z" fill="url(#paint31_linear_154_8085)"/>
<path d="M111.718 57.7658L111.122 56.3889C110.794 55.6182 110.035 55.1246 109.198 55.1159L95.6736 55.0986C94.5171 55.0986 93.5763 56.0339 93.5763 57.2029V60.1992H93.585L93.5591 82.186C93.5591 83.3464 94.4912 84.2903 95.6563 84.2903L132.293 84.3336C133.449 84.3336 134.39 83.3983 134.39 82.2293L134.416 61.1604C134.416 60 133.484 59.0561 132.319 59.0561L113.634 59.0301C112.805 59.0301 112.054 58.5365 111.718 57.7658Z" fill="url(#paint32_linear_154_8085)"/>
<path d="M130.195 84.6369L97.7616 84.6022C96.7777 84.6022 95.9751 83.7969 95.9751 82.8097L96.001 62.1045L132.007 62.1478L131.981 82.853C131.981 83.8402 131.179 84.6369 130.195 84.6369Z" fill="white"/>
<path d="M132.362 87.2689L95.5872 87.2256C94.4653 87.2256 93.5591 86.3163 93.5591 85.1905L93.585 65.334L134.416 65.3859L134.39 85.2425C134.39 86.3596 133.484 87.2689 132.362 87.2689Z" fill="url(#paint33_linear_154_8085)"/>
<path d="M191.654 213.7H88.0275L71.293 68.9883H208.388L191.654 213.7Z" fill="#BBA3EE"/>
<path d="M139.837 84.7051C136.54 84.7051 133.864 87.3896 133.864 90.6975V191.929C133.864 195.237 136.54 197.921 139.837 197.921C143.133 197.921 145.809 195.237 145.809 191.929V90.6975C145.817 87.3896 143.142 84.7051 139.837 84.7051Z" fill="url(#paint34_linear_154_8085)"/>
<path d="M108.439 90.576C108.137 87.2767 105.22 84.852 101.94 85.1637C98.6518 85.4668 96.2352 88.3938 96.5459 91.6844L105.901 192.483C106.203 195.782 109.121 198.207 112.4 197.895C115.688 197.592 118.105 194.665 117.794 191.374L108.439 90.576Z" fill="url(#paint35_linear_154_8085)"/>
<path d="M177.742 85.1643C174.454 84.8612 171.545 87.2773 171.243 90.5766L161.888 191.375C161.586 194.674 163.994 197.592 167.282 197.896C170.57 198.199 173.479 195.783 173.781 192.483L183.136 91.6851C183.447 88.3944 181.03 85.4674 177.742 85.1643Z" fill="url(#paint36_linear_154_8085)"/>
<path d="M148.907 32.341L152.972 26.5304C154.215 24.7552 156.614 24.149 158.548 25.1275L180.901 36.437C182.834 37.4156 183.775 39.7017 183.093 41.7627L180.857 48.4999L187.926 52.0763L190.524 44.248C191.447 41.4596 191.343 38.4201 190.23 35.7009C189.108 32.9818 187.054 30.7476 184.43 29.4227L162.078 18.1132C159.462 16.7883 156.45 16.4506 153.602 17.1693C150.754 17.8881 148.26 19.6027 146.577 22.0101L141.848 28.7559L148.907 32.341Z" fill="url(#paint37_linear_154_8085)"/>
<path d="M94.414 24.8848L222.042 89.4684C222.723 89.8148 223.543 89.5204 223.854 88.819L230.379 74.2448C230.672 73.5953 230.396 72.8246 229.766 72.5042L103.416 8.57873C102.777 8.25832 102 8.49213 101.655 9.11563L93.853 23.0403C93.4819 23.6985 93.7408 24.5384 94.414 24.8848Z" fill="#754FC7"/>
<path d="M118.418 62.6886L75.1011 92.7549L97.7062 125.543L141.024 95.4769L118.418 62.6886Z" fill="white"/>
<path d="M137.247 94.6376L98.254 121.699L78.8872 93.5985L117.871 66.5371L137.247 94.6376Z" fill="#E0D7F3"/>
<path d="M115.015 81.1724C116.679 81.1724 118.028 79.8193 118.028 78.1501C118.028 76.481 116.679 75.1279 115.015 75.1279C113.352 75.1279 112.003 76.481 112.003 78.1501C112.003 79.8193 113.352 81.1724 115.015 81.1724Z" fill="url(#paint38_radial_154_8085)"/>
<path d="M99.2031 96.1797L99.4448 120.877L122.152 105.116L99.2031 96.1797Z" fill="url(#paint39_linear_154_8085)"/>
<path d="M114.98 91.5029L115.161 109.974L132.137 98.1882L114.98 91.5029Z" fill="url(#paint40_linear_154_8085)"/>
<defs>
<linearGradient id="paint0_linear_154_8085" x1="117.292" y1="71.7938" x2="174.185" y2="93.3741" gradientUnits="userSpaceOnUse">
<stop stop-color="white"/>
<stop offset="1" stop-color="#E7ECF9"/>
</linearGradient>
<linearGradient id="paint1_linear_154_8085" x1="114.91" y1="54.8111" x2="175.229" y2="77.6955" gradientUnits="userSpaceOnUse">
<stop stop-color="#FFE2E4"/>
<stop offset="1" stop-color="#A4B8EA"/>
</linearGradient>
<linearGradient id="paint2_linear_154_8085" x1="113.421" y1="58.7381" x2="173.74" y2="81.6225" gradientUnits="userSpaceOnUse">
<stop stop-color="#FFE2E4"/>
<stop offset="1" stop-color="#A4B8EA"/>
</linearGradient>
<linearGradient id="paint3_linear_154_8085" x1="111.932" y1="62.665" x2="172.251" y2="85.5495" gradientUnits="userSpaceOnUse">
<stop stop-color="#FFE2E4"/>
<stop offset="1" stop-color="#A4B8EA"/>
</linearGradient>
<linearGradient id="paint4_linear_154_8085" x1="110.444" y1="66.5826" x2="170.764" y2="89.467" gradientUnits="userSpaceOnUse">
<stop stop-color="#FFE2E4"/>
<stop offset="1" stop-color="#A4B8EA"/>
</linearGradient>
<linearGradient id="paint5_linear_154_8085" x1="108.955" y1="70.5095" x2="169.275" y2="93.3939" gradientUnits="userSpaceOnUse">
<stop stop-color="#FFE2E4"/>
<stop offset="1" stop-color="#A4B8EA"/>
</linearGradient>
<linearGradient id="paint6_linear_154_8085" x1="107.465" y1="74.4364" x2="167.785" y2="97.3208" gradientUnits="userSpaceOnUse">
<stop stop-color="#FFE2E4"/>
<stop offset="1" stop-color="#A4B8EA"/>
</linearGradient>
<linearGradient id="paint7_linear_154_8085" x1="121.355" y1="37.8175" x2="181.675" y2="60.7021" gradientUnits="userSpaceOnUse">
<stop stop-color="#FFE2E4"/>
<stop offset="1" stop-color="#A4B8EA"/>
</linearGradient>
<linearGradient id="paint8_linear_154_8085" x1="119.582" y1="42.4918" x2="179.901" y2="65.3763" gradientUnits="userSpaceOnUse">
<stop stop-color="#FFE2E4"/>
<stop offset="1" stop-color="#A4B8EA"/>
</linearGradient>
<linearGradient id="paint9_linear_154_8085" x1="102.365" y1="96.6193" x2="135.445" y2="109.169" gradientUnits="userSpaceOnUse">
<stop stop-color="#FFE2E4"/>
<stop offset="1" stop-color="#A4B8EA"/>
</linearGradient>
<linearGradient id="paint10_linear_154_8085" x1="101.258" y1="99.5381" x2="134.338" y2="112.088" gradientUnits="userSpaceOnUse">
<stop stop-color="#FFE2E4"/>
<stop offset="1" stop-color="#A4B8EA"/>
</linearGradient>
<linearGradient id="paint11_linear_154_8085" x1="135.05" y1="111.66" x2="153.983" y2="118.841" gradientUnits="userSpaceOnUse">
<stop stop-color="#7A8FD8"/>
<stop offset="1" stop-color="#435AC2"/>
</linearGradient>
<linearGradient id="paint12_linear_154_8085" x1="127.939" y1="58.2241" x2="174.858" y2="71.0075" gradientUnits="userSpaceOnUse">
<stop stop-color="#7A8FD8"/>
<stop offset="1" stop-color="#435AC2"/>
</linearGradient>
<linearGradient id="paint13_linear_154_8085" x1="115.349" y1="54.7712" x2="175.787" y2="71.238" gradientUnits="userSpaceOnUse">
<stop stop-color="#FFC1C2"/>
<stop offset="1" stop-color="#FE958F"/>
</linearGradient>
<linearGradient id="paint14_linear_154_8085" x1="115.35" y1="54.7708" x2="175.787" y2="71.2373" gradientUnits="userSpaceOnUse">
<stop stop-color="#FFC1C2"/>
<stop offset="1" stop-color="#FE958F"/>
</linearGradient>
<linearGradient id="paint15_linear_154_8085" x1="125.897" y1="64.7492" x2="173.583" y2="77.7414" gradientUnits="userSpaceOnUse">
<stop stop-color="#FE958F"/>
<stop offset="1" stop-color="#F77C77"/>
</linearGradient>
<linearGradient id="paint16_linear_154_8085" x1="177.81" y1="65.8118" x2="129.01" y2="52.5158" gradientUnits="userSpaceOnUse">
<stop stop-color="#FFE2E4"/>
<stop offset="1" stop-color="#FFC1C2"/>
</linearGradient>
<linearGradient id="paint17_linear_154_8085" x1="79.972" y1="83.4927" x2="135.026" y2="57.5455" gradientUnits="userSpaceOnUse">
<stop stop-color="#FFFAFA"/>
<stop offset="1" stop-color="#D7E2FE"/>
</linearGradient>
<linearGradient id="paint18_linear_154_8085" x1="66.1168" y1="73.4496" x2="124.488" y2="45.9446" gradientUnits="userSpaceOnUse">
<stop stop-color="#FFE2E4"/>
<stop offset="1" stop-color="#A4B8EA"/>
</linearGradient>
<linearGradient id="paint19_linear_154_8085" x1="67.9063" y1="77.1153" x2="126.278" y2="49.6103" gradientUnits="userSpaceOnUse">
<stop stop-color="#FFE2E4"/>
<stop offset="1" stop-color="#A4B8EA"/>
</linearGradient>
<linearGradient id="paint20_linear_154_8085" x1="69.6969" y1="80.9138" x2="128.068" y2="53.4088" gradientUnits="userSpaceOnUse">
<stop stop-color="#FFE2E4"/>
<stop offset="1" stop-color="#A4B8EA"/>
</linearGradient>
<linearGradient id="paint21_linear_154_8085" x1="71.4844" y1="84.704" x2="129.856" y2="57.199" gradientUnits="userSpaceOnUse">
<stop stop-color="#FFE2E4"/>
<stop offset="1" stop-color="#A4B8EA"/>
</linearGradient>
<linearGradient id="paint22_linear_154_8085" x1="73.2743" y1="88.6341" x2="131.646" y2="61.1291" gradientUnits="userSpaceOnUse">
<stop stop-color="#FFE2E4"/>
<stop offset="1" stop-color="#A4B8EA"/>
</linearGradient>
<linearGradient id="paint23_linear_154_8085" x1="75.0645" y1="92.4329" x2="133.436" y2="64.9279" gradientUnits="userSpaceOnUse">
<stop stop-color="#FFE2E4"/>
<stop offset="1" stop-color="#A4B8EA"/>
</linearGradient>
<linearGradient id="paint24_linear_154_8085" x1="58.3695" y1="57.0134" x2="116.741" y2="29.5082" gradientUnits="userSpaceOnUse">
<stop stop-color="#FFE2E4"/>
<stop offset="1" stop-color="#A4B8EA"/>
</linearGradient>
<linearGradient id="paint25_linear_154_8085" x1="60.5003" y1="61.5349" x2="118.872" y2="34.0298" gradientUnits="userSpaceOnUse">
<stop stop-color="#FFE2E4"/>
<stop offset="1" stop-color="#A4B8EA"/>
</linearGradient>
<linearGradient id="paint26_linear_154_8085" x1="87.473" y1="111.492" x2="119.484" y2="96.408" gradientUnits="userSpaceOnUse">
<stop stop-color="#FFE2E4"/>
<stop offset="1" stop-color="#A4B8EA"/>
</linearGradient>
<linearGradient id="paint27_linear_154_8085" x1="88.8041" y1="114.316" x2="120.815" y2="99.2316" gradientUnits="userSpaceOnUse">
<stop stop-color="#FFE2E4"/>
<stop offset="1" stop-color="#A4B8EA"/>
</linearGradient>
<linearGradient id="paint28_linear_154_8085" x1="120.927" y1="98.2634" x2="139.247" y2="89.629" gradientUnits="userSpaceOnUse">
<stop stop-color="#7A8FD8"/>
<stop offset="1" stop-color="#435AC2"/>
</linearGradient>
<linearGradient id="paint29_linear_154_8085" x1="82.6806" y1="61.7284" x2="122.728" y2="61.7763" gradientUnits="userSpaceOnUse">
<stop stop-color="#7A8FD8"/>
<stop offset="1" stop-color="#435AC2"/>
</linearGradient>
<linearGradient id="paint30_linear_154_8085" x1="82.667" y1="56.8638" x2="122.739" y2="56.8638" gradientUnits="userSpaceOnUse">
<stop stop-color="#AF90F0"/>
<stop offset="1" stop-color="#754FC7"/>
</linearGradient>
<linearGradient id="paint31_linear_154_8085" x1="93.6472" y1="74.5827" x2="133.695" y2="74.6305" gradientUnits="userSpaceOnUse">
<stop stop-color="#7A8FD8"/>
<stop offset="1" stop-color="#435AC2"/>
</linearGradient>
<linearGradient id="paint32_linear_154_8085" x1="93.6349" y1="69.7181" x2="133.707" y2="69.7181" gradientUnits="userSpaceOnUse">
<stop stop-color="#FFC1C2"/>
<stop offset="1" stop-color="#FE958F"/>
</linearGradient>
<linearGradient id="paint33_linear_154_8085" x1="93.6455" y1="76.2745" x2="133.697" y2="76.3224" gradientUnits="userSpaceOnUse">
<stop stop-color="#FFE2E4"/>
<stop offset="1" stop-color="#FFC1C2"/>
</linearGradient>
<linearGradient id="paint34_linear_154_8085" x1="133.885" y1="141.31" x2="145.6" y2="141.31" gradientUnits="userSpaceOnUse">
<stop stop-color="#AF90F0"/>
<stop offset="1" stop-color="#754FC7"/>
</linearGradient>
<linearGradient id="paint35_linear_154_8085" x1="96.5555" y1="141.527" x2="117.448" y2="141.527" gradientUnits="userSpaceOnUse">
<stop stop-color="#AF90F0"/>
<stop offset="1" stop-color="#754FC7"/>
</linearGradient>
<linearGradient id="paint36_linear_154_8085" x1="161.899" y1="141.527" x2="182.79" y2="141.527" gradientUnits="userSpaceOnUse">
<stop stop-color="#AF90F0"/>
<stop offset="1" stop-color="#754FC7"/>
</linearGradient>
<linearGradient id="paint37_linear_154_8085" x1="141.932" y1="34.4372" x2="190.285" y2="34.4372" gradientUnits="userSpaceOnUse">
<stop stop-color="#AF90F0"/>
<stop offset="1" stop-color="#754FC7"/>
</linearGradient>
<radialGradient id="paint38_radial_154_8085" cx="0" cy="0" r="1" gradientUnits="userSpaceOnUse" gradientTransform="translate(114.968 78.15) scale(2.95419 4.1565)">
<stop stop-color="#AF90F0"/>
<stop offset="1" stop-color="#754FC7"/>
</radialGradient>
<linearGradient id="paint39_linear_154_8085" x1="99.2424" y1="108.528" x2="121.75" y2="108.528" gradientUnits="userSpaceOnUse">
<stop stop-color="#AF90F0"/>
<stop offset="1" stop-color="#754FC7"/>
</linearGradient>
<linearGradient id="paint40_linear_154_8085" x1="115.009" y1="100.738" x2="131.837" y2="100.738" gradientUnits="userSpaceOnUse">
<stop stop-color="#AF90F0"/>
<stop offset="1" stop-color="#754FC7"/>
</linearGradient>
</defs>
</svg>
