<svg width="42" height="42" viewBox="0 0 42 42" fill="none" xmlns="http://www.w3.org/2000/svg">
<g clip-path="url(#clip0_1_562)">
<path d="M40.4667 35.4853C40.411 34.9521 40.1737 34.4543 39.7947 34.0753L26.3633 20.646L27.7927 19.2113C28.0851 18.9188 28.2884 18.5491 28.3789 18.1454C28.4693 17.7418 28.4431 17.3207 28.3033 16.9314C28.1636 16.542 27.916 16.2004 27.5895 15.9464C27.2631 15.6924 26.8711 15.5364 26.4593 15.4966L25.5027 15.4046C25.7418 15.1845 25.8904 14.8831 25.9193 14.5593C25.9541 14.2006 25.9708 13.8404 25.9693 13.48C25.9693 13.102 25.9527 12.7413 25.9207 12.422C25.8984 12.1712 25.8067 11.9316 25.6558 11.73C25.505 11.5284 25.301 11.3728 25.0667 11.2806L23.4707 10.6446C23.2508 9.8705 22.9421 9.12442 22.5507 8.4213L23.2173 6.85664C23.3233 6.62898 23.3622 6.37587 23.3297 6.1269C23.2971 5.87792 23.1943 5.64336 23.0333 5.45064C22.8007 5.16664 22.5507 4.9033 22.3093 4.6553C22.078 4.42464 21.82 4.18864 21.518 3.93464C21.325 3.7757 21.0919 3.67296 20.8444 3.63769C20.5969 3.60241 20.3444 3.63595 20.1147 3.73464L18.544 4.4093C17.8412 4.0181 17.095 3.71067 16.3207 3.4933L15.6813 1.90464C15.5926 1.67211 15.4408 1.46893 15.2429 1.31795C15.0451 1.16697 14.809 1.07417 14.5613 1.04997C13.8504 0.984971 13.135 0.984971 12.424 1.04997C12.1733 1.07122 11.9335 1.16205 11.7316 1.31223C11.5297 1.4624 11.3738 1.66596 11.2813 1.89997L10.646 3.4933C9.8711 3.70947 9.12456 4.01673 8.42199 4.40864L6.84199 3.7333C6.61428 3.63518 6.36388 3.60194 6.11846 3.63723C5.87304 3.67253 5.64215 3.77499 5.45133 3.9333C5.18466 4.15464 4.92133 4.39197 4.65599 4.6573C4.39066 4.92264 4.15266 5.18064 3.93333 5.44664C3.77414 5.63807 3.67117 5.86989 3.63586 6.11635C3.60055 6.3628 3.63429 6.61421 3.73333 6.84264L4.40799 8.4213C4.01631 9.1239 3.70928 9.87044 3.49333 10.6453L1.88933 11.2846C1.65959 11.3763 1.45963 11.5296 1.31152 11.7277C1.16342 11.9258 1.07291 12.161 1.04999 12.4073C1.01666 12.7413 0.999992 13.102 0.999992 13.48C0.998344 13.8361 1.01459 14.1921 1.04866 14.5466C1.07055 14.7959 1.16167 15.0341 1.31174 15.2344C1.46182 15.4346 1.66487 15.589 1.89799 15.68L3.49333 16.3213C3.71057 17.0957 4.01801 17.8419 4.40933 18.5446L3.73333 20.1233C3.63541 20.3529 3.60271 20.6051 3.63881 20.8521C3.67492 21.0991 3.77844 21.3313 3.93799 21.5233C4.19399 21.8266 4.42999 22.0853 4.66266 22.318C4.88933 22.5386 5.15999 22.7966 5.44799 23.0326C5.63835 23.194 5.87063 23.2979 6.11777 23.3324C6.36491 23.3668 6.61675 23.3304 6.84399 23.2273L8.42333 22.5513C9.12645 22.9427 9.87253 23.2515 10.6467 23.4713L11.2867 25.078C11.3786 25.3075 11.5321 25.5072 11.7301 25.6553C11.9282 25.8034 12.1632 25.894 12.4093 25.9173C13.1207 25.983 13.8366 25.983 14.548 25.9173C14.8758 25.8891 15.1817 25.7407 15.4067 25.5006L15.4987 26.4586C15.5388 26.8701 15.6949 27.2617 15.949 27.5879C16.203 27.9141 16.5444 28.1614 16.9335 28.3011C17.3226 28.4408 17.7434 28.4671 18.1469 28.377C18.5504 28.2869 18.92 28.084 19.2127 27.792L20.648 26.3626L22.392 28.1126C22.4105 28.1327 22.4234 28.1573 22.4293 28.184L22.8427 30.2453C22.9127 30.5861 23.0981 30.8923 23.3676 31.1123C23.637 31.3323 23.9741 31.4528 24.322 31.4533H26.3693C26.416 31.4549 26.4601 31.4745 26.4925 31.5081C26.5249 31.5417 26.5429 31.5866 26.5427 31.6333V32.8266C26.5436 33.2266 26.7025 33.6099 26.9847 33.8933L28.2747 35.1833C28.4143 35.3269 28.5814 35.4409 28.766 35.5186C28.9507 35.5962 29.149 35.6359 29.3493 35.6353H30.696C30.7372 35.6354 30.7771 35.6499 30.8088 35.6763C30.8404 35.7028 30.8619 35.7394 30.8693 35.78L31.2833 37.8373C31.3449 38.1271 31.4865 38.3939 31.692 38.6073L33.652 40.56C33.7916 40.7008 33.9577 40.8123 34.1409 40.8882C34.324 40.9641 34.5204 41.0028 34.7187 41.002L39.2667 40.9953C39.5167 40.9943 39.7637 40.9395 39.9907 40.8347C40.2178 40.7298 40.4197 40.5774 40.5827 40.3877C40.7457 40.1981 40.866 39.9756 40.9354 39.7353C41.0049 39.4951 41.0219 39.2427 40.9853 38.9953L40.4667 35.4853ZM34.7147 39.6666C34.6919 39.6666 34.6693 39.662 34.6484 39.6531C34.6274 39.6441 34.6085 39.6311 34.5927 39.6146L32.6473 37.6766C32.6186 37.6464 32.5984 37.6092 32.5887 37.5686L32.1753 35.5153C32.1061 35.1733 31.921 34.8656 31.6513 34.6441C31.3815 34.4227 31.0436 34.3012 30.6947 34.3H29.348C29.3253 34.3 29.3028 34.2954 29.2818 34.2866C29.2609 34.2778 29.2419 34.2649 29.226 34.2486L27.926 32.9486C27.8948 32.9154 27.8766 32.8721 27.8747 32.8266V31.6333C27.8752 31.2329 27.7168 30.8487 27.4344 30.565C27.1519 30.2813 26.7684 30.1212 26.368 30.12H24.3207C24.2806 30.1204 24.2415 30.107 24.2102 30.082C24.1788 30.0569 24.1571 30.0218 24.1487 29.9826L23.734 27.916C23.6745 27.6272 23.5301 27.3628 23.3193 27.1566L21.1193 24.95C20.9943 24.825 20.8248 24.7548 20.648 24.7548C20.4712 24.7548 20.3017 24.825 20.1767 24.95L18.2667 26.8486C18.1551 26.9645 18.0121 27.0453 17.8553 27.0808C17.6984 27.1163 17.5346 27.1052 17.384 27.0486C17.2308 26.9962 17.0962 26.9004 16.9963 26.773C16.8964 26.6455 16.8357 26.4919 16.8213 26.3306L16.488 22.8506C16.4736 22.702 16.4097 22.5626 16.3067 22.4546C16.2036 22.3466 16.0672 22.2763 15.9195 22.2551C15.7717 22.2338 15.6211 22.2627 15.4917 22.3372C15.3624 22.4117 15.2617 22.5275 15.206 22.666L14.426 24.5913C13.791 24.6592 13.1503 24.6536 12.5167 24.5746L11.76 22.6666C11.7209 22.5685 11.6591 22.4811 11.5795 22.4115C11.5 22.342 11.4051 22.2923 11.3027 22.2666C10.4257 22.0485 9.58606 21.7012 8.81133 21.236C8.72095 21.1809 8.61872 21.1484 8.51318 21.1409C8.40763 21.1335 8.30184 21.1515 8.20466 21.1933L6.29599 22.0046C6.05066 21.8046 5.81866 21.5833 5.59733 21.368C5.36874 21.1409 5.1556 20.8988 4.95933 20.6433L5.76599 18.7633C5.80769 18.6663 5.82575 18.5608 5.81868 18.4554C5.81161 18.35 5.77961 18.2479 5.72533 18.1573C5.26092 17.3832 4.91572 16.5435 4.70133 15.6666C4.67603 15.5637 4.62655 15.4682 4.55698 15.3882C4.48741 15.3082 4.39977 15.246 4.30133 15.2066L2.37666 14.428C2.34799 14.1333 2.33333 13.8186 2.33333 13.48C2.33003 13.1585 2.35008 12.8372 2.39333 12.5186L4.29999 11.7593C4.39875 11.7197 4.48659 11.657 4.55618 11.5765C4.62577 11.4961 4.67508 11.4001 4.69999 11.2966C4.91214 10.4208 5.25726 9.58261 5.72333 8.8113C5.77794 8.72076 5.81022 8.61852 5.81753 8.51304C5.82483 8.40755 5.80694 8.30184 5.76533 8.20464L4.96133 6.29597C5.15466 6.0613 5.36133 5.8293 5.59866 5.5973C5.82369 5.36837 6.06402 5.15498 6.31799 4.95864L8.20466 5.76597C8.30181 5.80768 8.40749 5.82569 8.51298 5.8185C8.61846 5.81131 8.72073 5.77914 8.81133 5.72464C9.58292 5.25867 10.4213 4.91357 11.2973 4.7013C11.4008 4.67639 11.4967 4.62708 11.5772 4.55749C11.6577 4.4879 11.7204 4.40006 11.76 4.3013L12.5413 2.37797C13.1733 2.3076 13.8115 2.31387 14.442 2.39664L15.2087 4.3033C15.2481 4.40183 15.3104 4.48952 15.3906 4.55909C15.4707 4.62866 15.5662 4.6781 15.6693 4.7033C16.5455 4.91798 17.3844 5.26317 18.158 5.7273C18.2484 5.782 18.3506 5.81424 18.456 5.82132C18.5615 5.82839 18.6671 5.8101 18.764 5.76797L20.6667 4.95664C20.9053 5.15664 21.1453 5.37197 21.3653 5.59197C21.5934 5.81902 21.8055 6.0616 22 6.31797L21.1933 8.20464C21.1517 8.30184 21.1338 8.40755 21.1411 8.51304C21.1484 8.61852 21.1807 8.72076 21.2353 8.8113C21.7012 9.58553 22.0488 10.425 22.2667 11.302C22.2923 11.4044 22.342 11.4993 22.4115 11.5789C22.4811 11.6584 22.5685 11.7202 22.6667 11.7593L24.59 12.5393C24.6187 12.83 24.6333 13.1466 24.6333 13.48C24.6375 13.8016 24.6165 14.123 24.5707 14.4413L22.6667 15.2086C22.5285 15.2646 22.4131 15.3652 22.3389 15.4945C22.2646 15.6237 22.2358 15.7741 22.2571 15.9216C22.2784 16.0692 22.3484 16.2053 22.4562 16.3083C22.5639 16.4113 22.703 16.4753 22.8513 16.49L26.3293 16.8233C26.4909 16.8371 26.645 16.8976 26.7728 16.9974C26.9006 17.0972 26.9967 17.2319 27.0493 17.3853C27.1055 17.5361 27.1165 17.7001 27.081 17.8571C27.0455 18.0141 26.965 18.1573 26.8493 18.2693L24.9493 20.176C24.8245 20.301 24.7545 20.4704 24.7545 20.647C24.7545 20.8236 24.8245 20.993 24.9493 21.118L38.85 35.018C39.0183 35.1882 39.1217 35.4121 39.142 35.6506L39.5807 38.6386L35.4373 34.4953C35.3116 34.3739 35.1432 34.3067 34.9684 34.3082C34.7936 34.3097 34.6264 34.3798 34.5028 34.5034C34.3792 34.627 34.3091 34.7942 34.3075 34.969C34.306 35.1438 34.3732 35.3122 34.4947 35.438L38.7173 39.6606L34.7147 39.6666Z" fill="#754FC7" stroke="#754FC7" stroke-width="0.5"/>
<path d="M23.502 22.5592C23.3763 22.4378 23.2079 22.3706 23.0331 22.3721C22.8583 22.3736 22.6911 22.4437 22.5675 22.5673C22.4438 22.6909 22.3737 22.8581 22.3722 23.0329C22.3707 23.2077 22.4379 23.3761 22.5593 23.5019L27.084 28.0265C27.2097 28.148 27.3781 28.2152 27.5529 28.2137C27.7277 28.2121 27.8949 28.142 28.0185 28.0184C28.1421 27.8948 28.2123 27.7276 28.2138 27.5528C28.2153 27.378 28.1481 27.2096 28.0267 27.0839L23.502 22.5592Z" fill="#754FC7" stroke="#754FC7" stroke-width="0.5"/>
<path d="M31.0107 30.0666C30.8855 29.9414 30.7157 29.8711 30.5387 29.8711C30.3616 29.8711 30.1918 29.9414 30.0667 30.0666C29.9415 30.1918 29.8712 30.3616 29.8712 30.5386C29.8712 30.7156 29.9415 30.8854 30.0667 31.0106L31.5093 32.4533C31.6351 32.5747 31.8035 32.6419 31.9783 32.6404C32.1531 32.6389 32.3203 32.5688 32.4439 32.4451C32.5675 32.3215 32.6376 32.1543 32.6391 31.9795C32.6406 31.8047 32.5734 31.6363 32.452 31.5106L31.0107 30.0666Z" fill="#754FC7" stroke="#754FC7" stroke-width="0.5"/>
<path d="M9.66669 11C9.13625 11 8.62755 11.2107 8.25247 11.5858C7.8774 11.9609 7.66669 12.4696 7.66669 13V15.6667C7.66669 15.8435 7.73693 16.013 7.86195 16.1381C7.98697 16.2631 8.15654 16.3333 8.33335 16.3333C8.51016 16.3333 8.67973 16.2631 8.80476 16.1381C8.92978 16.013 9.00002 15.8435 9.00002 15.6667V15H10.3334V15.6667C10.3334 15.8435 10.4036 16.013 10.5286 16.1381C10.6536 16.2631 10.8232 16.3333 11 16.3333C11.1768 16.3333 11.3464 16.2631 11.4714 16.1381C11.5964 16.013 11.6667 15.8435 11.6667 15.6667V13C11.6667 12.4696 11.456 11.9609 11.0809 11.5858C10.7058 11.2107 10.1971 11 9.66669 11ZM9.00002 13.6667V13C9.00002 12.8232 9.07026 12.6536 9.19528 12.5286C9.32031 12.4036 9.48988 12.3333 9.66669 12.3333C9.8435 12.3333 10.0131 12.4036 10.1381 12.5286C10.2631 12.6536 10.3334 12.8232 10.3334 13V13.6667H9.00002Z" fill="#754FC7" stroke="#754FC7" stroke-width="0.5"/>
<path d="M19 11C18.8232 11 18.6536 11.0702 18.5286 11.1953C18.4036 11.3203 18.3333 11.4899 18.3333 11.6667V15.6667C18.3333 15.8435 18.4036 16.013 18.5286 16.1381C18.6536 16.2631 18.8232 16.3333 19 16.3333C19.1768 16.3333 19.3464 16.2631 19.4714 16.1381C19.5964 16.013 19.6666 15.8435 19.6666 15.6667V11.6667C19.6666 11.4899 19.5964 11.3203 19.4714 11.1953C19.3464 11.0702 19.1768 11 19 11Z" fill="#754FC7" stroke="#754FC7" stroke-width="0.5"/>
<path d="M15 11H13.6667C13.4899 11 13.3203 11.0702 13.1953 11.1953C13.0702 11.3203 13 11.4899 13 11.6667V15.6667C13 15.8435 13.0702 16.013 13.1953 16.1381C13.3203 16.2631 13.4899 16.3333 13.6667 16.3333C13.8435 16.3333 14.013 16.2631 14.1381 16.1381C14.2631 16.013 14.3333 15.8435 14.3333 15.6667V15H15C15.5304 15 16.0391 14.7893 16.4142 14.4142C16.7893 14.0391 17 13.5304 17 13C17 12.4696 16.7893 11.9609 16.4142 11.5858C16.0391 11.2107 15.5304 11 15 11ZM15 13.6667H14.3333V12.3333H15C15.1768 12.3333 15.3464 12.4036 15.4714 12.5286C15.5964 12.6536 15.6667 12.8232 15.6667 13C15.6667 13.1768 15.5964 13.3464 15.4714 13.4714C15.3464 13.5964 15.1768 13.6667 15 13.6667Z" fill="#754FC7" stroke="#754FC7" stroke-width="0.5"/>
</g>
<defs>
<clipPath id="clip0_1_562">
<rect width="42" height="42" fill="white"/>
</clipPath>
</defs>
</svg>
