<svg width="42" height="42" viewBox="0 0 42 42" fill="none" xmlns="http://www.w3.org/2000/svg">
<g clip-path="url(#clip0_1_576)">
<path d="M21 20.9999C20.9017 20.9999 20.805 20.9832 20.7117 20.9482L4.87837 15.1149C4.55004 14.9949 4.33337 14.6816 4.33337 14.3332C4.33337 13.9849 4.55171 13.6716 4.88004 13.5516L15.7134 9.56825C16.1434 9.41158 16.625 9.63158 16.7834 10.0632C16.9417 10.4949 16.72 10.9732 16.2884 11.1332L7.58004 14.3332L21 19.2782L34.42 14.3332L25.7117 11.1316C25.28 10.9732 25.0584 10.4932 25.2167 10.0616C25.375 9.62991 25.855 9.40991 26.2867 9.56658L37.12 13.5499C37.4484 13.6716 37.6667 13.9849 37.6667 14.3332C37.6667 14.6816 37.45 14.9949 37.1217 15.1149L21.2884 20.9482C21.195 20.9832 21.0984 20.9999 21 20.9999Z" fill="#754FC7" stroke="#754FC7" stroke-width="0.5"/>
<path d="M20.9999 41C20.9016 41 20.8049 40.9833 20.7133 40.9483L11.8633 37.6983C11.4316 37.54 11.2099 37.0617 11.3683 36.6283C11.5266 36.1967 12.0066 35.975 12.4383 36.1333L20.9999 39.2783L29.5633 36.1333C29.9949 35.9733 30.4733 36.1967 30.6333 36.6283C30.7916 37.06 30.5699 37.5383 30.1383 37.6983L21.2883 40.9483C21.1949 40.9833 21.0983 41 20.9999 41Z" fill="#754FC7" stroke="#754FC7" stroke-width="0.5"/>
<path d="M5.16671 30.6C4.70671 30.6 4.33337 30.2267 4.33337 29.7667V14.3333C4.33337 13.8733 4.70671 13.5 5.16671 13.5C5.62671 13.5 6.00004 13.8733 6.00004 14.3333V29.7667C6.00004 30.2267 5.62671 30.6 5.16671 30.6Z" fill="#754FC7" stroke="#754FC7" stroke-width="0.5"/>
<path d="M36.8333 30.6C36.3733 30.6 36 30.2267 36 29.7667V14.3333C36 13.8733 36.3733 13.5 36.8333 13.5C37.2933 13.5 37.6667 13.8733 37.6667 14.3333V29.7667C37.6667 30.2267 37.2933 30.6 36.8333 30.6Z" fill="#754FC7" stroke="#754FC7" stroke-width="0.5"/>
<path d="M21 14.3333C20.54 14.3333 20.1666 13.96 20.1666 13.5V6.83333C20.1666 6.37333 20.54 6 21 6C21.46 6 21.8333 6.37333 21.8333 6.83333V13.5C21.8333 13.96 21.46 14.3333 21 14.3333Z" fill="#754FC7" stroke="#754FC7" stroke-width="0.5"/>
<path d="M35.9001 36.7333C35.6867 36.7333 35.4734 36.6516 35.3101 36.49L31.2434 32.4233C30.9184 32.0983 30.9184 31.57 31.2434 31.245C31.5684 30.92 32.0967 30.92 32.4217 31.245L36.4884 35.3116C36.8134 35.6366 36.8134 36.165 36.4884 36.49C36.3267 36.6516 36.1134 36.7333 35.9001 36.7333Z" fill="#754FC7" stroke="#754FC7" stroke-width="0.5"/>
<path d="M6.09999 36.7333C5.88665 36.7333 5.67332 36.6516 5.50999 36.49C5.18499 36.165 5.18499 35.6366 5.50999 35.3116L9.57665 31.245C9.90165 30.92 10.43 30.92 10.755 31.245C11.08 31.57 11.08 32.0983 10.755 32.4233L6.68832 36.49C6.52665 36.6516 6.31332 36.7333 6.09999 36.7333Z" fill="#754FC7" stroke="#754FC7" stroke-width="0.5"/>
<path d="M21 40.9999C20.54 40.9999 20.1666 40.6266 20.1666 40.1666V20.1666C20.1666 19.7066 20.54 19.3333 21 19.3333C21.46 19.3333 21.8333 19.7066 21.8333 20.1666V40.1666C21.8333 40.6266 21.46 40.9999 21 40.9999Z" fill="#754FC7" stroke="#754FC7" stroke-width="0.5"/>
<path d="M21 7.66667C19.1616 7.66667 17.6666 6.17167 17.6666 4.33333C17.6666 2.495 19.1616 1 21 1C22.8383 1 24.3333 2.495 24.3333 4.33333C24.3333 6.17167 22.8383 7.66667 21 7.66667ZM21 2.66667C20.0816 2.66667 19.3333 3.415 19.3333 4.33333C19.3333 5.25167 20.0816 6 21 6C21.9183 6 22.6666 5.25167 22.6666 4.33333C22.6666 3.415 21.9183 2.66667 21 2.66667Z" fill="#754FC7" stroke="#754FC7" stroke-width="0.5"/>
<path d="M37.6667 40.9999C35.8284 40.9999 34.3334 39.5049 34.3334 37.6666C34.3334 35.8283 35.8284 34.3333 37.6667 34.3333C39.505 34.3333 41 35.8283 41 37.6666C41 39.5049 39.505 40.9999 37.6667 40.9999ZM37.6667 35.9999C36.7484 35.9999 36 36.7483 36 37.6666C36 38.5849 36.7484 39.3333 37.6667 39.3333C38.585 39.3333 39.3334 38.5849 39.3334 37.6666C39.3334 36.7483 38.585 35.9999 37.6667 35.9999Z" fill="#754FC7" stroke="#754FC7" stroke-width="0.5"/>
<path d="M4.33333 40.9999C2.495 40.9999 1 39.5049 1 37.6666C1 35.8283 2.495 34.3333 4.33333 34.3333C6.17167 34.3333 7.66667 35.8283 7.66667 37.6666C7.66667 39.5049 6.17167 40.9999 4.33333 40.9999ZM4.33333 35.9999C3.415 35.9999 2.66667 36.7483 2.66667 37.6666C2.66667 38.5849 3.415 39.3333 4.33333 39.3333C5.25167 39.3333 6 38.5849 6 37.6666C6 36.7483 5.25167 35.9999 4.33333 35.9999Z" fill="#754FC7" stroke="#754FC7" stroke-width="0.5"/>
</g>
<defs>
<clipPath id="clip0_1_576">
<rect width="42" height="42" fill="white"/>
</clipPath>
</defs>
</svg>
