<svg width="44" height="44" viewBox="0 0 44 44" fill="none" xmlns="http://www.w3.org/2000/svg">
<path d="M8.11737 13.9848V30.015L22 38.0301L35.8825 30.015V13.9848L22 5.96973L8.11737 13.9848ZM32.0051 14.731L22 20.5075L11.9948 14.731L22 8.95452L32.0051 14.731ZM10.7024 16.9697L20.7075 22.7461V34.299L10.7024 28.5226V16.9697ZM23.2924 34.2991V22.7461L33.2976 16.9697V28.5226L23.2924 34.2991Z" fill="#754FC7"/>
<path d="M22 2.98488L27.7303 6.29324L29.0228 4.05464L22 0L14.9772 4.05464L16.2697 6.29324L22 2.98488Z" fill="#754FC7"/>
<path d="M5.53237 12.4923L11.2627 9.184L9.97019 6.94531L2.94739 11V19.1091H5.53237V12.4923Z" fill="#754FC7"/>
<path d="M5.53237 24.8909H2.94739V33L9.97019 37.0546L11.2627 34.816L5.53237 31.5076V24.8909Z" fill="#754FC7"/>
<path d="M22 41.0152L16.2697 37.7068L14.9772 39.9455L22 44.0001L29.0228 39.9455L27.7303 37.7068L22 41.0152Z" fill="#754FC7"/>
<path d="M38.4675 31.5076L32.7373 34.816L34.0298 37.0546L41.0525 33V24.8909H38.4675V31.5076Z" fill="#754FC7"/>
<path d="M34.0298 6.94531L32.7373 9.184L38.4675 12.4923V19.1091H41.0525V11L34.0298 6.94531Z" fill="#754FC7"/>
</svg>
