<svg width="40" height="40" viewBox="0 0 40 40" fill="none" xmlns="http://www.w3.org/2000/svg">
<g clip-path="url(#clip0_1_595)">
<mask id="mask0_1_595" style="mask-type:luminance" maskUnits="userSpaceOnUse" x="0" y="0" width="40" height="40">
<path d="M0 3.8147e-06H40V40H0V3.8147e-06Z" fill="white"/>
</mask>
<g mask="url(#mask0_1_595)">
<path d="M3.24219 13.2566C5.74914 6.02288 12.5643 1.17194 20.2202 1.17194C28.4116 1.17194 35.5661 6.71179 37.6168 14.6423" stroke="#754FC7" stroke-width="2.2" stroke-miterlimit="22.926" stroke-linecap="round" stroke-linejoin="round"/>
<path d="M1.17188 11.0739L2.65109 14.5791L6.15633 13.0996" stroke="#754FC7" stroke-width="2.2" stroke-miterlimit="22.926" stroke-linecap="round" stroke-linejoin="round"/>
<path d="M36.7578 26.7434C34.2508 33.9772 27.4357 38.8281 19.7797 38.8281C11.5884 38.8281 4.43388 33.2883 2.38318 25.3577" stroke="#754FC7" stroke-width="2.2" stroke-miterlimit="22.926" stroke-linecap="round" stroke-linejoin="round"/>
<path d="M38.8281 28.6885L37.3489 25.1834L33.8436 26.6628" stroke="#754FC7" stroke-width="2.2" stroke-miterlimit="22.926" stroke-linecap="round" stroke-linejoin="round"/>
<path d="M22.3437 11.2441C23.1196 11.4514 23.8546 11.7585 24.5337 12.1516L24.9995 11.6859C25.9109 10.7745 27.4025 10.7745 28.314 11.6859L28.3141 11.686C29.2255 12.5975 29.2255 14.0891 28.3141 15.0005L27.8484 15.4662C28.2416 16.1452 28.5487 16.8804 28.7559 17.6563H29.4141C30.7031 17.6563 31.7578 18.7109 31.7578 20C31.7578 21.2891 30.7031 22.3437 29.4141 22.3437H28.7559C28.5488 23.1197 28.2416 23.8547 27.8484 24.5338L28.3141 24.9995C29.2255 25.9109 29.2255 27.4025 28.3141 28.314C27.4025 29.2255 25.9109 29.2255 24.9995 28.3141L24.5337 27.8484C23.8547 28.2415 23.1197 28.5487 22.3437 28.7559V29.4141C22.3437 30.7032 21.2891 31.7578 20 31.7578C18.7109 31.7578 17.6562 30.7032 17.6562 29.4141V28.7559C16.8803 28.5487 16.1454 28.2414 15.4662 27.8484L15.0005 28.3141C14.089 29.2255 12.5974 29.2255 11.6859 28.3141C10.7745 27.4025 10.7745 25.911 11.6859 24.9995L12.1516 24.5338C11.7584 23.8547 11.4512 23.1197 11.2441 22.3437H10.5859C9.2968 22.3437 8.24219 21.2891 8.24219 20C8.24219 18.7109 9.2968 17.6563 10.5859 17.6563H11.2441C11.4512 16.8803 11.7584 16.1453 12.1516 15.4662L11.6859 15.0005C10.7745 14.0891 10.7745 12.5975 11.6859 11.6859C12.5975 10.7745 14.0891 10.7745 15.0005 11.6859L15.4662 12.1516C16.1453 11.7584 16.8804 11.4514 17.6562 11.2441V10.5859C17.6562 9.29688 18.7109 8.24219 20 8.24219C21.2891 8.24219 22.3437 9.29688 22.3437 10.5859V11.2441Z" stroke="#754FC7" stroke-width="2.2" stroke-miterlimit="22.926" stroke-linecap="round" stroke-linejoin="round"/>
<path d="M20 22.3438C21.2909 22.3438 22.3438 21.2909 22.3438 20C22.3438 18.7091 21.2909 17.6562 20 17.6562C18.7091 17.6562 17.6562 18.7091 17.6562 20C17.6562 21.2909 18.7091 22.3438 20 22.3438Z" stroke="#754FC7" stroke-width="2.2" stroke-miterlimit="22.926" stroke-linecap="round" stroke-linejoin="round"/>
</g>
</g>
<defs>
<clipPath id="clip0_1_595">
<rect width="40" height="40" fill="white"/>
</clipPath>
</defs>
</svg>
