<svg width="293" height="99" viewBox="0 0 293 99" fill="none" xmlns="http://www.w3.org/2000/svg">
<path d="M217.178 16L198.193 34.9853V16H176.589L136 63.5286H157.604L182.874 31.3191L187.718 26.4746L182.874 40.2226V53.7087H201.074L223.07 31.581L230.403 24.3797L223.07 40.2226V63.5286H238.39V16H217.178Z" fill="#754FC7"/>
<path d="M291.91 49.126H268.342L253.285 54.6252L258.915 49.126L291.91 16H271.615L247 40.6154V63.5286H291.91V49.126Z" fill="#754FC7"/>
<path d="M36.7977 16.8116H47.7179V64H34.6137L15.1559 32.2322V64H4.23571V16.8116H17.1414L36.7977 48.5132V16.8116ZM89.4235 49.175H64.5387C64.7593 51.6017 65.6197 53.4328 67.1198 54.6682C68.6641 55.9036 70.4952 56.5213 72.613 56.5213C74.2455 56.5213 75.6354 56.1904 76.7825 55.5286C77.9297 54.8226 78.7901 53.7637 79.3637 52.3518L89.0264 53.6755C87.9233 57.2052 85.9158 59.9187 83.0037 61.816C80.1358 63.7132 76.6943 64.6618 72.6792 64.6618C69.8554 64.6618 67.2963 64.2647 65.002 63.4705C62.7076 62.6763 60.7442 61.5292 59.1117 60.029C57.5233 58.5289 56.2879 56.6978 55.4055 54.5358C54.5671 52.3297 54.148 49.8589 54.148 47.1234C54.148 44.3437 54.5892 41.8728 55.4716 39.7109C56.3541 37.5489 57.5895 35.7178 59.1779 34.2177C60.8104 32.6734 62.7297 31.5042 64.9358 30.71C67.186 29.9158 69.6568 29.5187 72.3483 29.5187C74.8191 29.5187 77.0914 29.8717 79.1651 30.5776C81.2389 31.2394 83.0479 32.2763 84.5921 33.6882C86.1364 35.1001 87.3497 36.8871 88.2322 39.049C89.1146 41.211 89.5558 43.7921 89.5558 46.7924L89.4235 49.175ZM72.4145 37.2621C70.3407 37.2621 68.6641 37.7033 67.3846 38.5858C66.105 39.4682 65.2446 40.8801 64.8034 42.8215H79.2313C78.9225 41.0125 78.1503 39.6447 76.9149 38.7181C75.6795 37.7474 74.1793 37.2621 72.4145 37.2621ZM90.5015 64L104.863 47.0572L90.5015 30.1805H103.672L111.151 40.2403L118.695 30.1805H131.734L117.372 47.1234L131.734 64H118.695L111.217 54.0726L103.672 64H90.5015Z" fill="#0C0C0C"/>
<path d="M282.575 98.1C277.05 98.1 273 94.25 273 89.05C273 83.85 277.05 80 282.575 80C288.075 80 292.15 83.825 292.15 89.05C292.15 94.275 288.075 98.1 282.575 98.1ZM282.575 94.65C285.7 94.65 288.05 92.375 288.05 89.05C288.05 85.725 285.7 83.45 282.575 83.45C279.45 83.45 277.1 85.725 277.1 89.05C277.1 92.375 279.45 94.65 282.575 94.65Z" fill="#2B3674"/>
<path d="M229 97.8V80.3H233.05V97.8H229Z" fill="#2B3674"/>
<path d="M171 97.8V80.3H178.95C184.675 80.3 188.6 83.75 188.6 89.05C188.6 94.35 184.675 97.8 178.95 97.8H171ZM175.05 94.475H178.75C182.225 94.475 184.5 92.4 184.5 89.05C184.5 85.7 182.225 83.625 178.75 83.625H175.05V94.475Z" fill="#2B3674"/>
<path d="M122.925 98.1C117.95 98.1 115 95.25 115 90.1V80.3H119.05V89.95C119.05 93.275 120.5 94.65 122.95 94.65C125.425 94.65 126.85 93.275 126.85 89.95V80.3H130.85V90.1C130.85 95.25 127.9 98.1 122.925 98.1Z" fill="#2B3674"/>
<path d="M64.6 97.8V83.6H59V80.3H74.25V83.6H68.65V97.8H64.6Z" fill="#2B3674"/>
<path d="M11.125 98.1C8.35 98.1 5.55 97.275 4 96.075L5.375 93.025C6.85 94.1 9.05 94.85 11.15 94.85C13.55 94.85 14.525 94.05 14.525 92.975C14.525 89.7 4.35 91.95 4.35 85.45C4.35 82.475 6.75 80 11.725 80C13.925 80 16.175 80.525 17.8 81.55L16.55 84.625C14.925 83.7 13.25 83.25 11.7 83.25C9.3 83.25 8.375 84.15 8.375 85.25C8.375 88.475 18.55 86.25 18.55 92.675C18.55 95.6 16.125 98.1 11.125 98.1Z" fill="#2B3674"/>
</svg>
