<svg width="24" height="24" viewBox="0 0 24 24" fill="none" xmlns="http://www.w3.org/2000/svg">
<g clip-path="url(#clip0_1_390)">
<path d="M16.8511 10.776C16.6161 10.7953 16.383 10.7207 16.2029 10.5684C16.0229 10.4161 15.9106 10.1986 15.8906 9.96365C15.8119 9.03459 15.7144 8.22646 15.6291 7.80178V7.79662C15.3773 6.49818 14.1473 5.21475 12.8859 4.93256C12.7767 4.91006 12.667 4.88849 12.5578 4.86787C12.6516 6.07396 12.7214 7.61615 12.712 8.80537C12.7261 10.6222 12.5522 13.4197 12.398 14.533C12.1209 16.5829 10.8605 18.8563 9.46594 19.8224L9.4575 19.828C8.4879 20.4831 7.44876 21.0287 6.35907 21.4551C6.16469 21.5304 5.97266 21.6007 5.78297 21.666C6.81741 21.8259 7.86282 21.9043 8.90953 21.9004C10.3345 21.9004 11.6353 21.7705 12.8859 21.5108C14.1473 21.2296 15.3773 19.9452 15.6291 18.6468V18.6416C15.7139 18.2197 15.8114 17.4116 15.8902 16.4854C15.9102 16.25 16.0229 16.0322 16.2035 15.8799C16.3841 15.7276 16.6178 15.6532 16.8532 15.6733C17.0886 15.6933 17.3064 15.806 17.4587 15.9866C17.611 16.1672 17.6853 16.4009 17.6653 16.6363C17.58 17.639 17.475 18.4963 17.3766 18.9894C16.988 20.9868 15.2203 22.8191 13.2647 23.2522L13.2534 23.2546C11.8791 23.5396 10.4588 23.6793 8.90625 23.6821C7.35375 23.6849 5.93907 23.5415 4.56469 23.2541L4.55297 23.2518C3.68016 23.0582 2.84532 22.5857 2.15344 21.9449C1.96645 21.8039 1.80302 21.6341 1.66922 21.4419C1.05797 20.7285 0.614066 19.8749 0.441566 18.9894C0.225472 17.9062 -0.0187468 15.0969 3.24682e-06 13.2219C-0.0103093 12.216 0.054847 10.941 0.15141 9.80803C0.202972 9.08146 0.261566 8.44865 0.317816 8.04271C0.594847 5.99287 1.85532 3.71943 3.25032 2.75334L3.25828 2.74771C4.22812 2.09279 5.2674 1.54713 6.35719 1.12068C7.46063 0.692245 8.47313 0.432558 9.45328 0.32662H9.46172C10.7789 0.208963 11.9761 1.35225 12.3384 3.02381C12.645 3.07256 12.9489 3.12803 13.2502 3.19021L13.2614 3.19256C15.2175 3.62568 16.9847 5.45802 17.3733 7.45537C17.4717 7.94943 17.5772 8.80865 17.6625 9.81365C17.6824 10.0488 17.6081 10.2823 17.4559 10.4627C17.3038 10.6432 17.0863 10.7558 16.8511 10.776Z" fill="#6A7893"/>
<path d="M24.0042 13.2233C24.0042 13.2529 24.0042 13.2824 23.9995 13.3119C23.9998 13.3138 23.9998 13.3157 23.9995 13.3176C23.9967 13.3452 23.9925 13.3728 23.9869 13.4001V13.4061C23.9517 13.5754 23.8678 13.7307 23.7455 13.8529L20.558 17.0432C20.3909 17.2103 20.1644 17.3042 19.9281 17.3042C19.6919 17.3042 19.4653 17.2104 19.2982 17.0434C19.1311 16.8764 19.0372 16.6498 19.0372 16.4136C19.0371 16.1773 19.1309 15.9507 19.298 15.7836L20.97 14.1121H14.8214C14.5852 14.1121 14.3587 14.0182 14.1916 13.8512C14.0246 13.6842 13.9308 13.4577 13.9308 13.2215C13.9308 12.9852 14.0246 12.7587 14.1916 12.5917C14.3587 12.4247 14.5852 12.3308 14.8214 12.3308H20.962L19.2914 10.6602C19.125 10.4931 19.0316 10.2667 19.0319 10.0308C19.0321 9.79494 19.1259 9.56878 19.2927 9.40198C19.4595 9.23518 19.6857 9.14137 19.9216 9.14112C20.1574 9.14088 20.3838 9.23422 20.5509 9.40068L23.7239 12.5736C23.839 12.6814 23.9231 12.818 23.9677 12.9693C23.9757 12.9962 23.9823 13.0236 23.9873 13.0513C23.9876 13.0552 23.9876 13.0591 23.9873 13.063C23.9916 13.0869 23.9958 13.1099 23.9981 13.1352C24.0005 13.1605 23.9981 13.1718 23.9981 13.1896C23.9981 13.1999 23.9981 13.2102 23.9981 13.2205L24.0042 13.2233Z" fill="#6A7893"/>
</g>
<defs>
<clipPath id="clip0_1_390">
<rect width="24" height="24" fill="white" transform="matrix(1 0 0 -1 0 24)"/>
</clipPath>
</defs>
</svg>
